<svg width="1024" height="1024" viewBox="0 0 1024 1024" fill="none" xmlns="http://www.w3.org/2000/svg">
<path d="M94 292.5L257.5 385.5L94 479.5V292.5Z" fill="#3AAFA9"/>
<path d="M331 890.359L492.981 794.739L493.249 983.334L331 890.359Z" fill="#3AAFA9"/>
<path d="M97 526.5L297 408.5L475.5 511.5L97 730V526.5Z" fill="#3AAFA9"/>
<path d="M493.906 748L294.142 866.399L115.437 763.756L493.499 544.5L493.906 748Z" fill="#3AAFA9"/>
<path d="M929.499 292.5L930.709 480.595L767.552 386L929.499 292.5Z" fill="#2B7A78"/>
<path d="M530.237 796.678L694.038 889.147L530.844 983.677L530.237 796.678Z" fill="#2B7A78"/>
<path d="M728.349 412.098L930.54 526.303L930.589 732.389L552.113 513.848L728.349 412.098Z" fill="#2B7A78"/>
<path d="M734.978 866.579L532.559 752.778L532.097 546.693L911.01 764.477L734.978 866.579Z" fill="#2B7A78"/>
<path d="M115 260.889L277.29 165.794L276.947 354.389L115 260.889Z" fill="#DEF2F1"/>
<path d="M751.261 354.57L749.442 166.48L912.904 260.546L751.261 354.57Z" fill="#DEF2F1"/>
<path d="M319.15 375.291L316.959 143.086L495.41 40L495.386 477.041L319.15 375.291Z" fill="#DEF2F1"/>
<path d="M709.427 142.31L712.082 374.51L533.838 477.952L532.988 40.9122L709.427 142.31Z" fill="#DEF2F1"/>
</svg>
